<svg width="439" height="335" viewBox="0 0 439 335" fill="none" xmlns="http://www.w3.org/2000/svg">
<path d="M405.364 71.8556C423.571 105.533 355.032 177.868 252.277 233.421C149.523 288.973 51.4639 306.707 33.2568 273.029C15.0497 239.352 83.5891 167.017 186.344 111.464C289.098 55.9118 387.157 38.1783 405.364 71.8556Z" fill="#1E1E1E"/>
<path fill-rule="evenodd" clip-rule="evenodd" d="M399.017 101.482C404.202 89.7425 404.477 80.6938 400.981 74.2257C397.484 67.7575 389.762 63.0321 377.099 60.9417C364.519 58.8649 347.969 59.5722 328.446 63.1027C289.458 70.1536 239.757 88.2524 188.714 115.848C137.67 143.444 95.3085 175.117 68.0571 203.878C54.4118 218.279 44.756 231.74 39.6042 243.403C34.4187 255.142 34.1437 264.191 37.6406 270.659C41.1375 277.127 48.8592 281.853 61.5217 283.943C74.1018 286.02 90.6526 285.313 110.175 281.782C149.163 274.731 198.864 256.633 249.907 229.037C300.951 201.441 343.313 169.768 370.564 141.007C384.209 126.606 393.865 113.145 399.017 101.482ZM252.277 233.421C355.032 177.868 423.571 105.533 405.364 71.8556C387.157 38.1783 289.098 55.9118 186.344 111.464C83.5891 167.017 15.0497 239.352 33.2568 273.029C51.4639 306.707 149.523 288.973 252.277 233.421Z" fill="#B2E8EC"/>
<path fill-rule="evenodd" clip-rule="evenodd" d="M171.686 108.241C170.633 113.488 174.033 118.596 179.28 119.649C219.828 127.788 245.752 165.849 238.079 204.077C237.025 209.324 240.425 214.431 245.672 215.485C250.919 216.538 256.027 213.138 257.08 207.891C266.991 158.511 233.465 110.758 183.093 100.648C177.846 99.5945 172.739 102.994 171.686 108.241Z" fill="#5F646E"/>
<path fill-rule="evenodd" clip-rule="evenodd" d="M195.84 254.514C200.236 193.587 249.795 145.518 310.353 145.435C325.801 145.414 340.541 148.517 354.005 154.163C319.886 188.585 247.951 228.739 195.84 254.514Z" fill="#D9D9D9"/>
<path d="M112.807 164.42C109.355 163.175 107.566 159.368 108.81 155.915L125.089 110.776C126.334 107.324 130.142 105.535 133.594 106.78L178.734 123.058C182.186 124.303 183.975 128.111 182.73 131.563L166.451 176.703C165.206 180.155 161.398 181.944 157.946 180.699L112.807 164.42Z" fill="#2D323C"/>
<path fill-rule="evenodd" clip-rule="evenodd" d="M128.736 112.091L112.457 157.23C111.938 158.669 112.683 160.255 114.122 160.774L159.261 177.053C160.7 177.572 162.286 176.826 162.805 175.388L179.084 130.248C179.603 128.81 178.857 127.223 177.419 126.705L132.279 110.426C130.841 109.907 129.254 110.653 128.736 112.091ZM108.81 155.915C107.566 159.368 109.355 163.175 112.807 164.42L157.946 180.699C161.398 181.944 165.206 180.155 166.451 176.703L182.73 131.563C183.975 128.111 182.186 124.303 178.734 123.058L133.594 106.78C130.142 105.535 126.334 107.324 125.089 110.776L108.81 155.915Z" fill="#AEAEAE"/>
<path d="M143.145 80.2962C139.693 79.0512 137.903 75.2435 139.148 71.7914L155.427 26.6519C156.672 23.1998 160.48 21.4106 163.932 22.6555L209.071 38.9344C212.524 40.1793 214.313 43.9871 213.068 47.4392L196.789 92.5786C195.544 96.0307 191.736 97.82 188.284 96.575L143.145 80.2962Z" fill="#2D323C"/>
<path fill-rule="evenodd" clip-rule="evenodd" d="M159.073 27.9669L142.794 73.1063C142.276 74.5447 143.021 76.1313 144.46 76.65L189.599 92.9289C191.037 93.4476 192.624 92.7021 193.143 91.2637L209.422 46.1242C209.94 44.6859 209.195 43.0993 207.756 42.5806L162.617 26.3017C161.179 25.783 159.592 26.5285 159.073 27.9669ZM139.148 71.7914C137.903 75.2435 139.693 79.0512 143.145 80.2962L188.284 96.575C191.736 97.82 195.544 96.0307 196.789 92.5786L213.068 47.4392C214.313 43.9871 212.524 40.1793 209.071 38.9344L163.932 22.6555C160.48 21.4106 156.672 23.1998 155.427 26.6519L139.148 71.7914Z" fill="#AEAEAE"/>
<path d="M151.55 132.32C159.437 135.164 163.525 143.864 160.681 151.75C157.836 159.637 149.137 163.725 141.251 160.88C133.364 158.036 129.276 149.337 132.12 141.45C134.965 133.564 143.664 129.476 151.55 132.32Z" fill="#B2E8EC"/>
<path d="M181.337 45.5229C189.224 48.3671 193.312 57.0662 190.468 64.9528C187.623 72.8395 178.924 76.9272 171.038 74.083C163.151 71.2388 159.063 62.5397 161.908 54.6531C164.752 46.7664 173.451 42.6787 181.337 45.5229Z" fill="#B2E8EC"/>
<path d="M154.438 145.368C155.024 150.072 151.685 154.36 146.981 154.946C142.277 155.531 137.989 152.193 137.403 147.489C136.818 142.785 140.156 138.497 144.86 137.911C149.564 137.325 153.852 140.664 154.438 145.368Z" fill="black"/>
<path d="M184.905 58.4333C185.491 63.1372 182.152 67.4253 177.448 68.011C172.744 68.5967 168.456 65.2583 167.87 60.5543C167.285 55.8504 170.623 51.5623 175.327 50.9766C180.031 50.3909 184.319 53.7294 184.905 58.4333Z" fill="black"/>
<path d="M151.694 136.782C151.94 138.754 150.54 140.553 148.567 140.798C146.595 141.044 144.797 139.644 144.551 137.671C144.305 135.699 145.705 133.9 147.678 133.655C149.651 133.409 151.449 134.809 151.694 136.782Z" fill="white"/>
<path d="M183.878 50.1911C184.124 52.1637 182.724 53.9619 180.751 54.2075C178.779 54.4531 176.98 53.0531 176.735 51.0805C176.489 49.1079 177.889 47.3097 179.862 47.0641C181.834 46.8184 183.633 48.2184 183.878 50.1911Z" fill="white"/>
</svg>
